<svg width="110" height="86" viewBox="0 0 110 86" fill="none" xmlns="http://www.w3.org/2000/svg">
<path fill-rule="evenodd" clip-rule="evenodd" d="M94.3322 0.145957C94.9739 0.354056 95.8982 1.03582 96.3123 1.60643C97.1299 2.73279 97.0745 0.369063 97.0745 34.1458C97.0745 61.725 97.0532 64.9722 96.8669 65.6289C96.5533 66.7349 95.8748 67.5066 94.7171 68.0741C94.0539 68.3991 93.8322 68.4279 91.2699 68.5215C89.7639 68.5767 88.4804 68.6541 88.4176 68.6938C88.355 68.7335 87.5618 68.8087 86.655 68.8609C85.7483 68.9132 84.643 69.0402 84.1988 69.1434C83.7546 69.2464 82.9236 69.3945 82.3523 69.4722C79.4686 69.8647 75.3762 71.014 71.949 72.3934C70.4763 72.9862 67.7424 74.3425 66.6269 75.0337C66.166 75.3191 65.7635 75.5528 65.7324 75.5528C65.6226 75.5528 63.7599 76.834 62.7165 77.6271C61.3661 78.6537 59.732 80.0757 58.8966 80.9515C58.5366 81.3288 58.1946 81.6375 58.1365 81.6375C58.0785 81.6375 58.0467 67.2014 58.0657 49.5573L58.1003 17.4771L58.3787 16.8676C58.5317 16.5324 58.8019 16.076 58.9789 15.8534C59.1561 15.631 59.528 15.0922 59.8055 14.6564C61.3636 12.2092 64.6746 8.96683 67.7944 6.83351C70.2897 5.12721 73.9691 3.32896 76.6312 2.51469C77.1027 2.37041 77.6072 2.20152 77.7523 2.13919C78.4282 1.84888 82.105 0.969021 83.4236 0.781881C83.9314 0.709946 84.9404 0.56229 85.6658 0.453981C88.5314 0.0260193 93.4261 -0.148005 94.3322 0.145957ZM21.1703 0.117155C22.695 0.227086 23.8668 0.373526 26.5779 0.792699C27.3775 0.916422 28.5578 1.17455 30.0072 1.54275C30.4424 1.65335 31.1249 1.82657 31.5239 1.92757C32.3857 2.14581 34.7884 2.99416 35.5782 3.35912C35.8857 3.50109 36.1709 3.61738 36.2119 3.61738C36.2529 3.61738 36.5652 3.74475 36.9058 3.90052C39.6725 5.16588 42.1012 6.64002 44.3175 8.39933C46.8886 10.4403 50.673 14.8835 51.6064 16.9571L51.9013 17.6123L51.9361 49.6249C51.9554 67.2319 51.9253 81.6375 51.8694 81.6375C51.8135 81.6375 51.3823 81.2657 50.9112 80.8112C50.4402 80.3568 49.7292 79.7026 49.3313 79.3576C48.9333 79.0127 48.4595 78.5937 48.2781 78.4267C48.0967 78.2597 47.6211 77.8954 47.2211 77.6173C46.8211 77.339 46.464 77.0707 46.4276 77.021C46.3914 76.9712 45.6792 76.4889 44.8449 75.9492C41.9945 74.105 38.4835 72.4424 34.9912 71.2828C32.8115 70.5588 29.9805 69.8492 28.0288 69.5373C27.3759 69.4329 26.2779 69.256 25.5888 69.1442C24.0293 68.8912 19.8934 68.5441 17.5843 68.4724C16.1368 68.4275 15.7451 68.369 15.2506 68.1234C14.4507 67.7266 13.6128 66.8459 13.2352 66.0054L12.9248 65.3146L12.959 34.0266L12.993 2.73847L13.2797 2.1976C13.6852 1.43268 14.4751 0.647611 15.1692 0.319845C15.67 0.0833507 16.0511 0.0360253 17.6092 0.0165541C18.6248 0.00384366 20.2273 0.0491407 21.1703 0.117155ZM107.245 14.0926C108.513 14.5713 109.355 15.4472 109.762 16.7129C109.989 17.4161 110 19.0017 110 49.8683C110 81.8755 109.997 82.2962 109.737 83.1585C109.214 84.8926 107.782 85.9883 106.039 85.9883C105.547 85.9883 104.708 85.8862 104.176 85.7612C103.643 85.6363 102.733 85.4224 102.152 85.2861C101.572 85.1497 100.741 84.9977 100.306 84.9483C99.8707 84.899 99.2968 84.8022 99.0306 84.7332C97.9618 84.4561 93.2651 83.8305 89.5567 83.4711C84.6058 82.9912 75.3446 83.0915 71.3555 83.6681C68.4784 84.084 67.055 84.3263 65.816 84.611C65.1994 84.7527 64.4575 84.9055 64.1673 84.9505L63.6398 85.0324L64.4311 84.2708C66.0452 82.7171 69.0528 80.6941 71.7556 79.344C72.5148 78.9647 73.239 78.5954 73.365 78.5234C73.4909 78.4513 73.669 78.3919 73.7607 78.3915C73.8523 78.391 74.0804 78.3089 74.2673 78.2088C74.7964 77.9257 78.6739 76.6767 79.9944 76.3639C80.6473 76.2093 81.6527 75.9636 82.2287 75.8178C82.8048 75.672 83.4577 75.5521 83.6795 75.5514C83.9015 75.5506 84.736 75.4337 85.5339 75.2914C86.3319 75.1493 88.2608 74.9655 89.8204 74.8832C93.9422 74.6655 95.3925 74.4962 96.3998 74.1154C99.556 72.9223 101.531 70.8083 102.763 67.3045L103.073 66.4256L103.11 40.1597L103.147 13.8939L104.958 13.9033C106.115 13.9094 106.941 13.9778 107.245 14.0926ZM6.79749 14.0629C6.83112 14.1559 6.87372 26.0059 6.89232 40.3964L6.92595 66.5608L7.2388 67.4398C7.41079 67.9232 7.61364 68.4404 7.68935 68.5891C7.76519 68.7378 8.01011 69.22 8.2338 69.6607C8.79012 70.7565 10.63 72.6284 11.8134 73.3025C13.8089 74.4393 14.3745 74.5426 20.8406 74.9512C22.6179 75.0636 24.4578 75.2427 24.9293 75.3494C25.4008 75.456 25.9747 75.5455 26.2047 75.548C26.4346 75.5506 27.2655 75.7076 28.0512 75.8969C28.8367 76.0861 29.8654 76.3334 30.3369 76.4463C31.506 76.7262 34.8956 77.8634 36.3079 78.4494C37.5994 78.9853 40.6961 80.5933 41.0257 80.899C41.143 81.0077 41.2724 81.0967 41.3134 81.0967C41.5385 81.0967 44.3084 83.1359 45.1089 83.8909C45.3627 84.1305 45.7485 84.482 45.9662 84.6721C46.3159 84.9775 46.3306 85.0177 46.0928 85.0178C45.9448 85.0178 45.4863 84.9279 45.0739 84.8177C44.0177 84.5356 41.6086 84.0954 39.8991 83.8719C39.1011 83.7676 37.6767 83.5807 36.7337 83.4567C34.5363 83.1678 23.8186 83.1075 21.2363 83.3694C17.0921 83.7898 11.4451 84.5325 11.197 84.6897C11.1478 84.7209 10.6415 84.8089 10.0719 84.8853C9.08701 85.0174 7.64582 85.3119 5.60703 85.7976C5.09924 85.9186 4.29799 86.0094 3.82648 85.9992C2.35231 85.9679 1.05989 85.103 0.374052 83.689L0.0675372 83.0573L0.0337752 50.1039L5.07082e-06 17.1504L0.309821 16.4349C0.891467 15.0909 1.76183 14.3217 3.01138 14.0469C3.99174 13.8314 6.71796 13.8429 6.79749 14.0629Z" fill="url(#paint0_linear_159_32)"/>
<defs>
<linearGradient id="paint0_linear_159_32" x1="55" y1="0" x2="55" y2="86" gradientUnits="userSpaceOnUse">
<stop stop-color="#FC6D2D"/>
<stop offset="1" stop-color="#FFAC2F"/>
</linearGradient>
</defs>
</svg>
