<svg width="83" height="92" viewBox="0 0 83 92" fill="none" xmlns="http://www.w3.org/2000/svg">
<path fill-rule="evenodd" clip-rule="evenodd" d="M18.3056 0.0661768C16.9542 0.263056 16.8121 0.792196 16.3643 7.2895L16.2721 8.62727L18.7771 8.5312C22.5478 8.38633 26.4809 8.7703 30.1658 9.64317C31.0798 9.85963 31.8492 10.0125 31.8754 9.98293C31.9019 9.95325 31.9905 8.8448 32.0726 7.51973C32.2127 5.25616 32.2511 5.05469 32.7063 4.19023C32.9727 3.68419 33.1908 3.23582 33.1908 3.1939C33.1908 3.05164 31.4301 2.32959 29.6566 1.74477C26.1765 0.597153 20.4617 -0.248034 18.3056 0.0661768ZM60.2351 0.165457C56.7873 0.719686 52.868 1.75502 51.0471 2.59241L49.9262 3.10793L50.4086 4.03083C50.9385 5.04429 51.1544 6.24545 51.1665 8.24621C51.1705 8.9193 51.2383 9.57143 51.3169 9.69519C51.4406 9.89008 51.7984 9.85459 53.9653 9.43207C58.0017 8.64501 58.9591 8.55185 62.9743 8.55568L66.7124 8.55904L66.6157 7.10241C66.3989 3.83456 66.2096 2.08545 65.9906 1.32608C65.6557 0.165304 65.3726 0.0569984 62.7398 0.0828512C61.5735 0.0943243 60.4464 0.131497 60.2351 0.165457ZM37.2358 5.82584C36.4032 5.94011 36.3542 6.11312 36.3614 8.91149C36.3651 10.3124 36.4154 11.6037 36.4731 11.781C36.5615 12.0521 36.7427 12.1189 37.6119 12.2006C39.229 12.3527 46.301 12.3129 46.5593 12.1503C46.8752 11.9516 46.9035 6.3097 46.5902 5.99748C46.4368 5.84465 45.3867 5.79402 42.0572 5.77872C39.6739 5.76786 37.5042 5.78912 37.2358 5.82584ZM59.5436 12.9305C58.1945 12.9942 56.6806 13.18 55.4833 13.4287C53.3788 13.8657 51.4764 14.4212 51.4764 14.5985C51.4764 14.7603 54.7594 15.6456 56.4414 15.9375C57.4937 16.12 58.9301 16.1847 62.079 16.1916C66.0125 16.2003 66.3352 16.1804 66.7437 15.9049C67.1217 15.6499 67.1725 15.5332 67.1085 15.0635C66.9967 14.2419 66.6041 13.4217 66.2024 13.17C65.7605 12.8931 62.6776 12.7822 59.5436 12.9305ZM16.8632 13.0778C16.46 13.3115 15.9669 14.3797 15.9389 15.0802C15.9062 15.8962 16.1736 16.0732 17.6457 16.2108C19.323 16.3676 25.3662 16.1706 26.7575 15.9138C28.3136 15.6265 31.5005 14.7427 31.5005 14.5985C31.5005 14.3156 28.0937 13.4616 25.6614 13.1347C23.7537 12.8784 17.2793 12.8365 16.8632 13.0778ZM34.9702 19.2222C34.2633 20.6736 33.0987 22.8936 32.3822 24.1556C31.6658 25.4176 31.105 26.4787 31.136 26.5136C31.1671 26.5484 31.7378 26.453 32.4043 26.3014C33.8191 25.9797 34.2407 26.0491 34.9631 26.7227C35.545 27.2654 35.8454 28.1672 36.0367 29.946C36.0971 30.5077 36.1961 30.9977 36.2565 31.0347C36.392 31.1183 38.275 27.9067 39.3033 25.8383C40.5754 23.2792 42.7178 17.7808 42.7178 17.0749C42.7178 16.6627 42.1292 16.587 38.9105 16.585L36.2555 16.5833L34.9702 19.2222ZM46.5871 19.2222C46.3068 20.0845 45.6327 21.9133 45.0891 23.2859C44.5454 24.6586 44.1007 25.9859 44.1007 26.2358C44.1007 26.4856 44.2671 27.0146 44.4706 27.4114C45.1239 28.6858 46.6816 31.1375 46.7567 31.01C46.7968 30.942 46.9109 30.267 47.0101 29.5097C47.4184 26.3955 48.175 25.7263 50.6355 26.3032C51.2695 26.4518 51.8148 26.5457 51.8475 26.5119C51.8803 26.4779 51.5239 25.7963 51.0559 24.997C50.5877 24.1977 49.5171 22.2186 48.6769 20.5989C47.8365 18.9792 47.1372 17.6542 47.1229 17.6542C47.1086 17.6542 46.8675 18.3598 46.5871 19.2222ZM2.32996 20.865C0.780445 21.0037 0.28166 21.3019 0.124158 22.1834C0.065613 22.511 0.0136756 24.6834 0.00891213 27.011L0 31.2432L0.598356 31.715L1.19671 32.1868H13.0438H24.8911L24.3384 31.466C23.4348 30.2876 23.5177 30.0641 26.6039 25.3473C28.3485 22.6811 29.2741 21.0468 29.1243 20.8975C28.9777 20.7514 3.93726 20.7212 2.32996 20.865ZM54.4344 20.8218C54.0753 20.8561 53.7814 20.9252 53.7814 20.9754C53.7814 21.2661 56.4549 25.6265 57.7226 27.4036C58.5448 28.5561 59.156 29.8223 59.158 30.3776C59.1589 30.611 58.9292 31.0871 58.6228 31.4866L58.0859 32.1868H69.9331H81.7802L82.3901 31.7058L83 31.225L82.9501 26.5281C82.8958 21.4215 82.9192 21.555 81.9894 21.0478C81.5577 20.8122 80.3835 20.7888 68.3023 20.7747C61.0342 20.7663 54.7935 20.7874 54.4344 20.8218ZM29.1956 31.5103C28.1392 31.7904 27.1711 32.0493 27.0443 32.0854C26.9176 32.1216 27.8337 32.1593 29.0803 32.169L31.3468 32.1868V31.6604C31.3468 31.3708 31.2951 31.1042 31.2316 31.0676C31.1681 31.0311 30.252 31.2304 29.1956 31.5103ZM41.2282 31.2307C40.8807 32.1889 38.383 35.5532 36.691 37.3417L35.6494 38.4429V65.2214V92H41.4885H47.3276V65.2233V38.4467L46.3631 37.4201C44.6278 35.5733 42.1484 32.2688 41.7858 31.3194C41.6246 30.8974 41.364 30.8559 41.2282 31.2307ZM51.7183 31.0791C51.6699 31.1274 51.6301 31.3964 51.6301 31.6769V32.1868H53.807C55.0042 32.1868 55.9535 32.1567 55.9166 32.1198C55.7765 31.9804 51.8027 30.9953 51.7183 31.0791ZM4.76349 61.8798V87.2896L5.32143 88.3465C5.95651 89.5498 7.26263 90.8522 8.36869 91.3852C9.45138 91.9071 11.1913 91.9859 21.7814 91.9933L31.3468 92V64.235V36.4701H18.0552H4.76349V61.8798ZM51.6301 64.235V92L61.1187 91.9933C70.6707 91.9867 73.1007 91.9013 74.3719 91.5281C75.369 91.2354 77.5032 89.1337 77.7494 88.2021C78.1488 86.691 78.2085 83.0724 78.211 60.2959L78.2135 36.4701H64.9218H51.6301V64.235Z" fill="url(#paint0_linear_159_53)"/>
<defs>
<linearGradient id="paint0_linear_159_53" x1="41.5" y1="0" x2="41.5" y2="92" gradientUnits="userSpaceOnUse">
<stop stop-color="#FC6D2D"/>
<stop offset="1" stop-color="#FFAC2F"/>
</linearGradient>
</defs>
</svg>
