<svg xmlns="http://www.w3.org/2000/svg" viewBox="0 0 150 150"><defs><style>.cls-1{fill:#ff691e;}.cls-2{fill:#db5419;}.cls-3{fill:#fff;}.cls-4{fill:#3f210d;}</style></defs><g id="Camada_2" data-name="Camada 2"><g id="Camada_1-2" data-name="Camada 1"><path class="cls-1" d="M150,75c.23,40.92-33.32,75.07-74,75C33.25,149.94.54,116.91,0,75.78A74.76,74.76,0,0,1,74.49,0C116.22-.33,149.76,33,150,75ZM76.44,48.47c-1.87.52-2.79,0-2.61-1.64a81.36,81.36,0,0,1,1.53-10.59c1.43-5.63,2.86-11.18,1-17a7.25,7.25,0,0,0-5-5.23c.47,1.78.77,3.25,1.26,4.64a20.72,20.72,0,0,1,.46,12.53c-1.54,5.63-3.48,11.17-2.69,17.09-2.25.51-2.78.33-2.55-1.5a57.77,57.77,0,0,1,1.88-9.11c1.46-5,2.55-9.93.47-15A5.31,5.31,0,0,0,65.7,19a21.58,21.58,0,0,0,.86,3.14c2,4.49,1.79,9,.3,13.57a50.74,50.74,0,0,0-2.21,9.06c-.54,4.3-.34,4.32-4.67,5-6,.9-11.79,2.24-16.89,5.73a7.31,7.31,0,0,0-3.43,6.49c.08,3.6.18,7.2.47,10.79C41.27,86.78,48.23,97,61,103c17.65,8.32,39.13-1.41,45-20.22.59-1.88,1.62-2.38,3.35-3.06a23.84,23.84,0,0,0,8.1-4.81c4.38-4.32,3.63-10.43-1.54-13.73-2.13-1.36-4.88-1.75-7.33-2.63a12.15,12.15,0,0,1-2.69-1.23,53.69,53.69,0,0,0-4.6-3.34c-5.55-2.91-11.61-4-17.78-4.7-3.65-.38-4-.39-3.75-4.14a91.25,91.25,0,0,1,2-13.45c1.25-5.62,2.17-11.17.44-16.81a7.69,7.69,0,0,0-4.85-5.39c.4,1.67.57,2.85.95,3.95A26.9,26.9,0,0,1,78.55,30C76.8,36,75.47,42.06,76.44,48.47Zm.69,70.41c4.16-.6,12-1.49,19.79-2.93a35.19,35.19,0,0,0,15.5-6.73c5-3.9,5-9.31,0-13.09a67.85,67.85,0,0,0-6.18-3.66c-1.31-.78-2.1-.4-2.9.88-8,12.84-26.27,17.09-38.2,13.51a36.71,36.71,0,0,1-19.47-14.1c-.53-.72-1.92-1.63-2.43-1.4A42.9,42.9,0,0,0,34.63,96c-5.64,4.36-5.3,10,.68,13.92a44,44,0,0,0,7.88,4C52.9,117.64,63.09,118.55,77.13,118.88Z"/><path class="cls-2" d="M35.31,109.91,73.87,150S134,152.8,148.7,89.21L120.25,64.8Z"/><path class="cls-3" d="M77.13,118.88c-14-.33-24.23-1.24-33.94-4.95a44,44,0,0,1-7.88-4c-6-3.88-6.32-9.56-.68-13.92a42.9,42.9,0,0,1,8.61-4.63c.51-.23,1.9.68,2.43,1.4a36.71,36.71,0,0,0,19.47,14.1c11.93,3.58,30.21-.67,38.2-13.51.8-1.28,1.59-1.66,2.9-.88a67.85,67.85,0,0,1,6.18,3.66c5,3.78,5,9.19,0,13.09A35.19,35.19,0,0,1,96.92,116C89.16,117.39,81.29,118.28,77.13,118.88Z"/><path class="cls-4" d="M70.13,56.08c-.55-1.81-1.09-3.62-1.67-5.56,1.54-.75,2.32-.53,3.07,1.16a36.63,36.63,0,0,0,3.4,5.21l1-.48-1.54-6.07c1.79-.73,2.7-.19,3.52,1.54a25.5,25.5,0,0,0,3.19,4.23l.68-.38c-.39-1.73-.78-3.47-1.23-5.51,7.09.77,13.92,1.59,19.79,5.64,4,2.73,3.81,6.15-.16,8.86-4.63,3.17-10,4.23-15.41,5a72.37,72.37,0,0,1-30-1.75A28.31,28.31,0,0,1,47.1,64.5c-3.77-2.44-3.76-6-.08-8.55,5.08-3.52,11-4.62,17-5.27.48,0,1.15.77,1.58,1.3,1.24,1.55,2.41,3.16,3.61,4.74Z"/><path class="cls-1" d="M74.32,97.82c-3.11-3.11-6.25-5.85-8.85-9A11.06,11.06,0,0,1,63.63,83,4.71,4.71,0,0,1,67,78a5.77,5.77,0,0,1,6.18,1.43,15.33,15.33,0,0,1,1.46,1.75A6,6,0,0,1,80.38,78c4.08.24,6.43,3.27,5,7.07a19.58,19.58,0,0,1-3.8,6C79.41,93.44,76.85,95.5,74.32,97.82Z"/><path class="cls-3" d="M76.44,48.47c-1-6.41.36-12.45,2.11-18.49a26.9,26.9,0,0,0-.34-16.55c-.38-1.1-.55-2.28-.95-3.95a7.69,7.69,0,0,1,4.85,5.39c1.73,5.64.81,11.19-.44,16.81a91.25,91.25,0,0,0-2,13.45c-.24,3.75.1,3.76,3.75,4.14,6.17.65,12.23,1.79,17.78,4.7a53.69,53.69,0,0,1,4.6,3.34,12.15,12.15,0,0,0,2.69,1.23c2.45.88,5.2,1.27,7.33,2.63,5.17,3.3,5.92,9.41,1.54,13.73a23.84,23.84,0,0,1-8.1,4.81c-1.73.68-2.76,1.18-3.35,3.06C100.08,101.58,78.6,111.31,61,103,48.23,97,41.27,86.78,40.13,72.73c-.29-3.59-.39-7.19-.47-10.79a7.31,7.31,0,0,1,3.43-6.49C48.19,52,54,50.62,60,49.72c4.33-.65,4.13-.67,4.67-5a50.74,50.74,0,0,1,2.21-9.06c1.49-4.6,1.71-9.08-.3-13.57A21.58,21.58,0,0,1,65.7,19a5.31,5.31,0,0,1,4.58,3.69c2.08,5.09,1,10-.47,15a57.77,57.77,0,0,0-1.88,9.11c-.23,1.83.3,2,2.55,1.5-.79-5.92,1.15-11.46,2.69-17.09a20.72,20.72,0,0,0-.46-12.53c-.49-1.39-.79-2.86-1.26-4.64a7.25,7.25,0,0,1,5,5.23c1.82,5.79.39,11.34-1,17a81.36,81.36,0,0,0-1.53,10.59C73.65,48.44,74.57,49,76.44,48.47Zm-6.31,7.61-.91.64C68,55.14,66.85,53.53,65.61,52c-.43-.53-1.1-1.35-1.58-1.3C58,51.33,52.1,52.43,47,56c-3.68,2.55-3.69,6.11.08,8.55a28.31,28.31,0,0,0,7.62,3.44,72.37,72.37,0,0,0,30,1.75c5.42-.74,10.78-1.8,15.41-5,4-2.71,4.11-6.13.16-8.86-5.87-4-12.7-4.87-19.79-5.64.45,2,.84,3.78,1.23,5.51l-.68.38a25.5,25.5,0,0,1-3.19-4.23c-.82-1.73-1.73-2.27-3.52-1.54l1.54,6.07-1,.48a36.63,36.63,0,0,1-3.4-5.21C70.78,50,70,49.77,68.46,50.52,69,52.46,69.58,54.27,70.13,56.08Zm4.19,41.74c2.53-2.32,5.09-4.38,7.26-6.79a19.58,19.58,0,0,0,3.8-6c1.43-3.8-.92-6.83-5-7.07a6,6,0,0,0-5.77,3.22,15.33,15.33,0,0,0-1.46-1.75A5.77,5.77,0,0,0,67,78a4.71,4.71,0,0,0-3.34,5,11.06,11.06,0,0,0,1.84,5.77C68.07,92,71.21,94.71,74.32,97.82ZM108.19,63c-.23,5.18-.45,10.18-.68,15.19l.58.34a56.44,56.44,0,0,0,4.84-5.69C116,68.13,114.19,64.21,108.19,63Z"/><path class="cls-1" d="M108.19,63c6,1.19,7.84,5.11,4.74,9.84a56.44,56.44,0,0,1-4.84,5.69l-.58-.34C107.74,73.2,108,68.2,108.19,63Z"/></g></g></svg>